<svg width="31" height="31" viewBox="0 0 31 31" fill="none" xmlns="http://www.w3.org/2000/svg">
<path d="M-0.000244141 15.0767C-0.000244141 6.75035 6.74962 0.000488281 15.076 0.000488281C23.4023 0.000488281 30.1522 6.75035 30.1522 15.0767C30.1522 23.403 23.4023 30.1529 15.076 30.1529C6.74962 30.1529 -0.000244141 23.403 -0.000244141 15.0767Z" fill="white"/>
<path fill-rule="evenodd" clip-rule="evenodd" d="M10.879 9.31172C10.879 10.2974 10.1371 11.0861 8.94575 11.0861H8.92388C7.7769 11.0861 7.03534 10.2974 7.03534 9.31172C7.03534 8.3052 7.79945 7.53857 8.96823 7.53857C10.1371 7.53857 10.8568 8.3052 10.879 9.31172ZM10.6539 12.4872V22.7527H7.23736V12.4872H10.6539ZM22.9754 22.7527L22.9755 16.8668C22.9755 13.7137 21.29 12.2462 19.0417 12.2462C17.2277 12.2462 16.4156 13.2425 15.9621 13.9415V12.4875H12.5451C12.5902 13.4508 12.5451 22.753 12.5451 22.753H15.9621V17.0199C15.9621 16.7131 15.9843 16.407 16.0747 16.1874C16.3216 15.5744 16.8838 14.9399 17.8277 14.9399C19.0645 14.9399 19.5589 15.8812 19.5589 17.2606V22.7527H22.9754Z" fill="#46178F"/>
</svg>
