<svg width="32" height="31" viewBox="0 0 32 31" fill="none" xmlns="http://www.w3.org/2000/svg">
<path d="M15.9617 30.1529C24.2881 30.1529 31.0379 23.403 31.0379 15.0767C31.0379 6.75033 24.2881 0.000488281 15.9617 0.000488281C7.63534 0.000488281 0.885498 6.75033 0.885498 15.0767C0.885498 23.403 7.63534 30.1529 15.9617 30.1529Z" fill="white"/>
<path d="M25.1964 10.8349C24.5503 11.1214 23.8553 11.3152 23.1265 11.4017C23.8707 10.9558 24.4417 10.2504 24.7113 9.40839C24.015 9.82146 23.2434 10.1211 22.4229 10.2826C21.7656 9.58254 20.829 9.14502 19.7919 9.14502C17.8021 9.14502 16.1882 10.7588 16.1882 12.7487C16.1882 13.0311 16.2202 13.306 16.282 13.5699C13.2871 13.4197 10.6316 11.9851 8.85412 9.80426C8.54399 10.3364 8.36608 10.9558 8.36608 11.6162C8.36608 12.8661 9.00274 13.9696 9.96916 14.6156C9.37872 14.5971 8.82268 14.435 8.33705 14.1644C8.33679 14.1797 8.33678 14.1951 8.33678 14.2101C8.33678 15.9562 9.57947 17.4125 11.2277 17.7433C10.9256 17.8261 10.6066 17.8699 10.2785 17.8699C10.0458 17.8699 9.82027 17.8476 9.60044 17.8057C10.0589 19.237 11.3895 20.279 12.9668 20.3083C11.7332 21.2749 10.1796 21.8509 8.49078 21.8509C8.20053 21.8509 7.91297 21.8339 7.63159 21.8003C9.22553 22.8232 11.1202 23.4195 13.1552 23.4195C19.7835 23.4195 23.4084 17.9285 23.4084 13.166C23.4084 13.0099 23.4049 12.8543 23.3979 12.7C24.1026 12.1921 24.7135 11.5576 25.1964 10.8349Z" fill="#46178F"/>
</svg>
