<svg width="32" height="31" viewBox="0 0 32 31" fill="none" xmlns="http://www.w3.org/2000/svg">
<path d="M20.4942 8.02295H11.5069C10.0717 8.02295 8.9054 9.18924 8.9054 10.6245V19.6104C8.9054 21.0456 10.0716 22.2136 11.5069 22.2136H20.4943C21.9279 22.2136 23.0959 21.0456 23.0959 19.6104V10.6245C23.0958 9.18918 21.9279 8.02295 20.4942 8.02295ZM15.9998 19.7892C13.4245 19.7892 11.3281 17.6928 11.3281 15.1175C11.3281 12.5422 13.4245 10.4459 15.9998 10.4459C18.5767 10.4459 20.6714 12.5422 20.6714 15.1175C20.6714 17.6928 18.5751 19.7892 15.9998 19.7892ZM20.8223 11.4118C20.2121 11.4118 19.7168 10.9167 19.7168 10.3065C19.7168 9.69767 20.2121 9.20088 20.8223 9.20088C21.4309 9.20088 21.9279 9.69767 21.9279 10.3065C21.9279 10.9167 21.4309 11.4118 20.8223 11.4118V11.4118Z" fill="white"/>
<path d="M15.9998 12.4209C14.5137 12.4209 13.3031 13.6298 13.3031 15.1175C13.3031 16.6053 14.5137 17.8159 15.9998 17.8159C17.4876 17.8159 18.6981 16.6053 18.6981 15.1175C18.6981 13.6314 17.4876 12.4209 15.9998 12.4209Z" fill="white"/>
<path d="M15.9998 0.000488281C7.6735 0.000488281 0.923584 6.7504 0.923584 15.0767C0.923584 23.403 7.6735 30.1529 15.9998 30.1529C24.3261 30.1529 31.076 23.403 31.076 15.0767C31.076 6.75047 24.3261 0.000488281 15.9998 0.000488281V0.000488281ZM25.0691 19.6106C25.0691 22.135 23.0172 24.1871 20.4943 24.1871H11.507C8.98416 24.1871 6.93048 22.1351 6.93048 19.6106V10.6247C6.93048 8.10208 8.98416 6.0484 11.507 6.0484H20.4943C23.0172 6.0484 25.0691 8.10208 25.0691 10.6247V19.6106V19.6106Z" fill="white"/>
</svg>
