<svg width="32" height="31" viewBox="0 0 32 31" fill="none" xmlns="http://www.w3.org/2000/svg">
<path d="M31.1141 15.0767C31.1141 6.75033 24.3642 0.000488281 16.0379 0.000488281C7.71151 0.000488281 0.96167 6.75033 0.96167 15.0767C0.96167 23.403 7.71151 30.1529 16.0379 30.1529C24.3642 30.1529 31.1141 23.403 31.1141 15.0767Z" fill="white"/>
<path d="M17.1013 23.4522V15.352H19.8671L20.2819 12.1951H17.1013V10.1796C17.1013 9.26567 17.3596 8.6428 18.6928 8.6428H20.3932V5.82014C19.5702 5.73454 18.743 5.69307 17.9153 5.69594C15.4636 5.69594 13.7852 7.16702 13.7852 9.86878V12.1951H11.0125V15.352H13.7852V23.4522H17.1013Z" fill="#46178F"/>
</svg>
