<svg width="31" height="31" viewBox="0 0 31 31" fill="none" xmlns="http://www.w3.org/2000/svg">
<circle cx="15.9236" cy="15.0767" r="15.0762" fill="white"/>
<path d="M22.8382 14.0909V11.4C21.5818 11.4 20.623 11.0636 20.0043 10.4098C19.3693 9.66364 19.0135 8.71872 18.9983 7.73777V7.54352L16.462 7.48193C16.462 7.48193 16.462 7.5909 16.462 7.73777V18.4117C16.375 18.8885 16.1442 19.3271 15.8008 19.6683C15.4574 20.0094 15.0179 20.2367 14.5417 20.3193C14.0655 20.402 13.5754 20.3361 13.1377 20.1306C12.7 19.925 12.3357 19.5897 12.094 19.1699C11.8523 18.7501 11.7448 18.266 11.7861 17.783C11.8273 17.3 12.0153 16.8413 12.3247 16.4688C12.6341 16.0964 13.0499 15.8281 13.5161 15.7003C13.9823 15.5724 14.4764 15.5911 14.9317 15.7538V13.1481C14.6662 13.1045 14.3977 13.0823 14.1287 13.0818C13.161 13.0818 12.2149 13.3697 11.4103 13.909C10.6056 14.4483 9.97842 15.2149 9.60807 16.1117C9.23772 17.0086 9.14082 17.9955 9.32962 18.9475C9.51842 19.8996 9.98445 20.7742 10.6688 21.4606C11.3531 22.147 12.225 22.6145 13.1741 22.8039C14.1233 22.9933 15.1072 22.8961 16.0013 22.5246C16.8954 22.1531 17.6596 21.524 18.1973 20.7168C18.7349 19.9097 19.0219 18.9608 19.0219 17.99C19.0214 17.7889 19.0088 17.5879 18.9841 17.3883V13.0534C20.1374 13.7759 21.4792 14.1371 22.8382 14.0909V14.0909Z" fill="#46178F"/>
</svg>
