<svg width="25" height="23" viewBox="0 0 25 23" fill="none" xmlns="http://www.w3.org/2000/svg">
<path d="M13.1 1.53322L12.5 1.76796L11.9 1.53322C10.0984 0.82045 8.16447 0.492682 6.22549 0.571468C4.28651 0.650254 2.38637 1.13381 0.65 1.99034L0 2.33626V22.4L1.8125 21.5105C3.22777 20.8162 4.77513 20.4244 6.35381 20.3606C7.93248 20.2967 9.50706 20.5622 10.975 21.1398L12.5 21.7452L14.025 21.1398C15.4929 20.5622 17.0675 20.2967 18.6462 20.3606C20.2249 20.4244 21.7722 20.8162 23.1875 21.5105L25 22.4V2.33626L24.3125 1.99034C22.5812 1.13918 20.6876 0.658528 18.7556 0.579761C16.8235 0.500994 14.8964 0.825885 13.1 1.53322V1.53322ZM6.85 17.8659C5.3718 17.8639 3.90295 18.0975 2.5 18.5577V3.89293C5.20884 2.78119 8.24987 2.75902 10.975 3.83116L11.25 3.94235V18.6072C9.82206 18.1209 8.32282 17.8704 6.8125 17.8659H6.85ZM22.5 18.5577C19.6611 17.616 16.5889 17.616 13.75 18.5577V3.94235L14.025 3.83116C16.7501 2.75902 19.7912 2.78119 22.5 3.89293V18.5577Z" fill="white"/>
</svg>
