<svg width="25" height="27" viewBox="0 0 25 27" fill="none" xmlns="http://www.w3.org/2000/svg">
<g clip-path="url(#clip0_163_66)">
<path d="M12.5 2.14502C12.397 2.14502 12.2963 2.17679 12.2106 2.23631C12.125 2.29583 12.0582 2.38042 12.0188 2.4794C11.9794 2.57838 11.9691 2.68729 11.9892 2.79236C12.0093 2.89743 12.0589 2.99395 12.1317 3.0697C12.2046 3.14546 12.2974 3.19704 12.3984 3.21794C12.4994 3.23885 12.6041 3.22812 12.6993 3.18712C12.7945 3.14612 12.8758 3.0767 12.9331 2.98762C12.9903 2.89854 13.0208 2.79382 13.0208 2.68669C13.0208 2.54303 12.966 2.40525 12.8683 2.30367C12.7706 2.20209 12.6381 2.14502 12.5 2.14502V2.14502ZM17.7083 0.52002H7.29167C6.601 0.52002 5.93862 0.805361 5.45024 1.31327C4.96187 1.82118 4.6875 2.51006 4.6875 3.22835V23.8117C4.6875 24.1673 4.75486 24.5195 4.88573 24.8481C5.0166 25.1767 5.20842 25.4753 5.45024 25.7268C5.69206 25.9783 5.97914 26.1778 6.2951 26.3139C6.61105 26.45 6.94968 26.52 7.29167 26.52H17.7083C18.0503 26.52 18.389 26.45 18.7049 26.3139C19.0209 26.1778 19.3079 25.9783 19.5498 25.7268C19.7916 25.4753 19.9834 25.1767 20.1143 24.8481C20.2451 24.5195 20.3125 24.1673 20.3125 23.8117V3.22835C20.3125 2.51006 20.0381 1.82118 19.5498 1.31327C19.0614 0.805361 18.399 0.52002 17.7083 0.52002V0.52002ZM19.2708 23.8117C19.2708 24.2427 19.1062 24.656 18.8132 24.9607C18.5202 25.2655 18.1227 25.4367 17.7083 25.4367H7.29167C6.87727 25.4367 6.47984 25.2655 6.18681 24.9607C5.89379 24.656 5.72917 24.2427 5.72917 23.8117V20.02H19.2708V23.8117ZM19.2708 18.9367H5.72917V4.85335H19.2708V18.9367ZM19.2708 3.77002H5.72917V3.22835C5.72917 2.79738 5.89379 2.38405 6.18681 2.0793C6.47984 1.77456 6.87727 1.60335 7.29167 1.60335H17.7083C18.1227 1.60335 18.5202 1.77456 18.8132 2.0793C19.1062 2.38405 19.2708 2.79738 19.2708 3.22835V3.77002ZM12.5 24.3534C12.809 24.3534 13.1111 24.258 13.3681 24.0795C13.625 23.9009 13.8253 23.6471 13.9436 23.3502C14.0618 23.0533 14.0928 22.7265 14.0325 22.4113C13.9722 22.0961 13.8234 21.8066 13.6049 21.5793C13.3863 21.352 13.1079 21.1973 12.8048 21.1346C12.5017 21.0719 12.1876 21.1041 11.9021 21.227C11.6165 21.35 11.3725 21.5583 11.2008 21.8256C11.0291 22.0928 10.9375 22.407 10.9375 22.7284C10.9375 23.1593 11.1021 23.5727 11.3951 23.8774C11.6882 24.1821 12.0856 24.3534 12.5 24.3534ZM12.5 22.1867C12.603 22.1867 12.7037 22.2185 12.7894 22.278C12.875 22.3375 12.9418 22.4221 12.9812 22.5211C13.0206 22.62 13.0309 22.729 13.0108 22.834C12.9907 22.9391 12.9411 23.0356 12.8683 23.1114C12.7954 23.1871 12.7026 23.2387 12.6016 23.2596C12.5006 23.2805 12.3959 23.2698 12.3007 23.2288C12.2055 23.1878 12.1242 23.1184 12.0669 23.0293C12.0097 22.9402 11.9792 22.8355 11.9792 22.7284C11.9792 22.5847 12.034 22.4469 12.1317 22.3453C12.2294 22.2438 12.3619 22.1867 12.5 22.1867Z" fill="white"/>
</g>
<defs>
<clipPath id="clip0_163_66">
<rect width="25" height="26" fill="white" transform="translate(0 0.52002)"/>
</clipPath>
</defs>
</svg>
