<svg width="25" height="27" viewBox="0 0 25 27" fill="none" xmlns="http://www.w3.org/2000/svg">
<path d="M21.875 11.0825H21.0938V3.77002C21.0938 3.55453 21.0114 3.34787 20.8649 3.1955C20.7184 3.04312 20.5197 2.95752 20.3125 2.95752H4.6875C4.4803 2.95752 4.28159 3.04312 4.13507 3.1955C3.98856 3.34787 3.90625 3.55453 3.90625 3.77002V11.0825H3.125C2.9178 11.0825 2.71909 11.1681 2.57257 11.3205C2.42606 11.4729 2.34375 11.6795 2.34375 11.895V21.645C2.34375 21.8605 2.42606 22.0672 2.57257 22.2195C2.71909 22.3719 2.9178 22.4575 3.125 22.4575H4.6875V23.27C4.6875 23.4855 4.76981 23.6922 4.91632 23.8445C5.06284 23.9969 5.26155 24.0825 5.46875 24.0825C5.67595 24.0825 5.87466 23.9969 6.02118 23.8445C6.16769 23.6922 6.25 23.4855 6.25 23.27V22.4575H18.75V23.27C18.75 23.4855 18.8323 23.6922 18.9788 23.8445C19.1253 23.9969 19.3241 24.0825 19.5313 24.0825C19.7385 24.0825 19.9372 23.9969 20.0837 23.8445C20.2302 23.6922 20.3125 23.4855 20.3125 23.27V22.4575H21.875C22.0822 22.4575 22.2809 22.3719 22.4274 22.2195C22.5739 22.0672 22.6563 21.8605 22.6563 21.645V11.895C22.6563 11.6795 22.5739 11.4729 22.4274 11.3205C22.2809 11.1681 22.0822 11.0825 21.875 11.0825ZM5.46875 4.58252H19.5313V11.0825H17.9688C17.7616 11.0825 17.5628 11.1681 17.4163 11.3205C17.2698 11.4729 17.1875 11.6795 17.1875 11.895V14.3325H7.8125V11.895C7.8125 11.6795 7.73019 11.4729 7.58368 11.3205C7.43717 11.1681 7.23845 11.0825 7.03125 11.0825H5.46875V4.58252ZM7.8125 15.9575H17.1875V17.5825H7.8125V15.9575ZM21.0938 20.8325H3.90625V12.7075H6.25V18.395C6.25 18.6105 6.33231 18.8172 6.47882 18.9695C6.62534 19.1219 6.82405 19.2075 7.03125 19.2075H17.9688C18.176 19.2075 18.3747 19.1219 18.5212 18.9695C18.6677 18.8172 18.75 18.6105 18.75 18.395V12.7075H21.0938V20.8325Z" fill="white"/>
</svg>
