<svg width="25" height="27" viewBox="0 0 25 27" fill="none" xmlns="http://www.w3.org/2000/svg">
<path d="M9.2625 14.86H12.2875C12.452 14.861 12.6151 14.8282 12.7674 14.7635C12.9197 14.6988 13.0582 14.6035 13.175 14.483L17.65 9.829C17.8828 9.58543 18.0135 9.25594 18.0135 8.9125C18.0135 8.56906 17.8828 8.23957 17.65 7.996L14.625 4.876C14.3908 4.63387 14.074 4.49797 13.7437 4.49797C13.4135 4.49797 13.0967 4.63387 12.8625 4.876L8.3875 9.53C8.15198 9.77002 8.0172 10.0971 8.0125 10.44V13.56C8.0125 13.9048 8.1442 14.2354 8.37862 14.4792C8.61304 14.723 8.93098 14.86 9.2625 14.86ZM10.5125 10.96L13.75 7.632L15 8.932L11.775 12.26H10.525L10.5125 10.96ZM23.75 16.16H22.5V3.16H23.75C24.0815 3.16 24.3995 3.02303 24.6339 2.77924C24.8683 2.53544 25 2.20478 25 1.86C25 1.51522 24.8683 1.18456 24.6339 0.940759C24.3995 0.696961 24.0815 0.559998 23.75 0.559998H1.25C0.918479 0.559998 0.600537 0.696961 0.366116 0.940759C0.131696 1.18456 0 1.51522 0 1.86C0 2.20478 0.131696 2.53544 0.366116 2.77924C0.600537 3.02303 0.918479 3.16 1.25 3.16H2.5V16.16H1.25C0.918479 16.16 0.600537 16.297 0.366116 16.5408C0.131696 16.7846 0 17.1152 0 17.46C0 17.8048 0.131696 18.1354 0.366116 18.3792C0.600537 18.623 0.918479 18.76 1.25 18.76H11.25V20.255L5.5625 24.155C5.32917 24.3052 5.14985 24.5311 5.05221 24.7978C4.95457 25.0645 4.94404 25.3573 5.02224 25.6308C5.10044 25.9044 5.26303 26.1436 5.48492 26.3115C5.7068 26.4794 5.97566 26.5668 6.25 26.56C6.49575 26.5629 6.7362 26.4856 6.9375 26.339L11.25 23.375V25.26C11.25 25.6048 11.3817 25.9354 11.6161 26.1792C11.8505 26.423 12.1685 26.56 12.5 26.56C12.8315 26.56 13.1495 26.423 13.3839 26.1792C13.6183 25.9354 13.75 25.6048 13.75 25.26V23.375L18.0625 26.339C18.2638 26.4856 18.5042 26.5629 18.75 26.56C19.0171 26.5579 19.2764 26.4668 19.4901 26.3002C19.7038 26.1336 19.8606 25.9002 19.9375 25.6342C20.0143 25.3682 20.0073 25.0836 19.9173 24.8221C19.8273 24.5606 19.6592 24.3359 19.4375 24.181L13.75 20.281V18.76H23.75C24.0815 18.76 24.3995 18.623 24.6339 18.3792C24.8683 18.1354 25 17.8048 25 17.46C25 17.1152 24.8683 16.7846 24.6339 16.5408C24.3995 16.297 24.0815 16.16 23.75 16.16ZM20 16.16H5V3.16H20V16.16Z" fill="white"/>
</svg>
